<svg width="25" height="24" viewBox="0 0 25 24" fill="none" xmlns="http://www.w3.org/2000/svg">
<path d="M19.9519 4H17.9327V2H15.9135V4H9.85579V2H7.83656V4H5.81733C4.70372 4 3.7981 4.897 3.7981 6V20C3.7981 21.103 4.70372 22 5.81733 22H19.9519C21.0655 22 21.9712 21.103 21.9712 20V6C21.9712 4.897 21.0655 4 19.9519 4ZM19.954 20H5.81733V8H19.9519L19.954 20Z" fill="#1F1F1F"/>
<path d="M11.8751 17.414L17.637 11.707L16.2094 10.293L11.8751 14.586L9.56004 12.293L8.13245 13.707L11.8751 17.414Z" fill="#1F1F1F"/>
</svg>
