<svg width="28" height="28" viewBox="0 0 28 28" fill="none" xmlns="http://www.w3.org/2000/svg">
<path d="M25.6422 10.094C25.4357 7.05132 22.8842 4.66666 19.8333 4.66666H8.16668C5.04118 4.66666 2.49901 7.08866 2.34851 10.1932C2.33684 10.2853 2.33334 10.381 2.33334 10.4883V19.25C2.33334 20.3292 2.76851 21.3827 3.52568 22.1387C4.28401 22.8982 5.33751 23.3333 6.41668 23.3333C8.08384 23.3333 9.12801 22.0955 10.1372 20.8985C10.5082 20.4587 10.8908 20.0037 11.3038 19.6117C11.5803 19.348 12.5895 18.8568 13.0993 18.7355C13.3933 18.6667 14.6078 18.6678 14.8972 18.7343C15.4093 18.8557 16.4185 19.348 16.695 19.6105C17.108 20.0037 17.4907 20.4587 17.8617 20.8985C18.872 22.0955 19.9162 23.3333 21.5833 23.3333C22.6625 23.3333 23.716 22.8982 24.472 22.141C25.2315 21.3827 25.6667 20.3292 25.6667 19.25V10.5C25.6667 10.3892 25.662 10.29 25.6503 10.1967C25.648 10.164 25.6445 10.1302 25.6422 10.094ZM23.3333 19.25C23.3333 19.7132 23.1478 20.1647 22.8223 20.4902C22.498 20.8145 22.0465 21 21.5833 21C21 21 20.3723 20.2557 19.6455 19.3935C19.2535 18.9303 18.809 18.403 18.305 17.9212C17.6318 17.2807 16.1805 16.6402 15.4338 16.464C14.9485 16.3508 14.3267 16.3333 14 16.3333C13.6733 16.3333 13.0515 16.3508 12.565 16.4652C11.8207 16.6402 10.3693 17.2807 9.69618 17.9223C9.19101 18.403 8.74768 18.9292 8.35568 19.3935C7.62768 20.2557 7.00001 21 6.41668 21C5.95351 21 5.50201 20.8145 5.17651 20.489C4.85218 20.1647 4.66668 19.7132 4.66668 19.25L4.65618 10.5257C4.66784 10.4662 4.67484 10.4055 4.67718 10.3448C4.74718 8.46999 6.28018 6.99999 8.16668 6.99999H19.8333C21.6615 6.99999 23.1898 8.42916 23.31 10.1733C23.31 10.2433 23.3158 10.3133 23.3217 10.3133C23.3217 10.388 23.3182 10.4265 23.3333 10.5V19.25Z" fill="#EBEBEB"/>
<path d="M18.6667 15.1667C19.311 15.1667 19.8333 14.6443 19.8333 14C19.8333 13.3557 19.311 12.8333 18.6667 12.8333C18.0223 12.8333 17.5 13.3557 17.5 14C17.5 14.6443 18.0223 15.1667 18.6667 15.1667Z" fill="#EBEBEB"/>
<path d="M21 12.8333C21.6443 12.8333 22.1666 12.311 22.1666 11.6667C22.1666 11.0223 21.6443 10.5 21 10.5C20.3556 10.5 19.8333 11.0223 19.8333 11.6667C19.8333 12.311 20.3556 12.8333 21 12.8333Z" fill="#EBEBEB"/>
<path d="M18.6667 10.5C19.311 10.5 19.8333 9.97766 19.8333 9.33332C19.8333 8.68899 19.311 8.16666 18.6667 8.16666C18.0223 8.16666 17.5 8.68899 17.5 9.33332C17.5 9.97766 18.0223 10.5 18.6667 10.5Z" fill="#EBEBEB"/>
<path d="M16.3333 12.8333C16.9777 12.8333 17.5 12.311 17.5 11.6667C17.5 11.0223 16.9777 10.5 16.3333 10.5C15.689 10.5 15.1667 11.0223 15.1667 11.6667C15.1667 12.311 15.689 12.8333 16.3333 12.8333Z" fill="#EBEBEB"/>
<path d="M9.33333 14C10.622 14 11.6667 12.9553 11.6667 11.6667C11.6667 10.378 10.622 9.33334 9.33333 9.33334C8.04467 9.33334 7 10.378 7 11.6667C7 12.9553 8.04467 14 9.33333 14Z" fill="#EBEBEB"/>
</svg>
