<svg width="28" height="28" viewBox="0 0 28 28" fill="none" xmlns="http://www.w3.org/2000/svg">
<path d="M9.33334 15.1667H11.6667V19.8333H9.33334V15.1667ZM9.33334 21H11.6667V23.3333H9.33334V21ZM12.8333 17.5H15.1667V22.1667H12.8333V17.5ZM12.8333 23.3333H15.1667V25.6667H12.8333V23.3333ZM16.3333 15.1667H18.6667V19.8333H16.3333V15.1667ZM16.3333 21H18.6667V23.3333H16.3333V21Z" fill="white"/>
<path d="M22.1013 11.7973C21.5915 7.78166 18.1533 4.66666 14 4.66666C10.7847 4.66666 7.99168 6.54616 6.71651 9.50832C4.21051 10.2573 2.33334 12.6222 2.33334 15.1667C2.33334 18.3832 4.95018 21 8.16668 21V18.6667C6.23701 18.6667 4.66668 17.0963 4.66668 15.1667C4.66668 13.5298 6.06551 11.9513 7.78518 11.6492L8.46301 11.529L8.68701 10.8768C9.50718 8.48516 11.5442 6.99999 14 6.99999C17.2165 6.99999 19.8333 9.61682 19.8333 12.8333V14H21C22.2868 14 23.3333 15.0465 23.3333 16.3333C23.3333 17.6202 22.2868 18.6667 21 18.6667H19.8333V21H21C23.5737 21 25.6667 18.907 25.6667 16.3333C25.6667 14.1388 24.1442 12.2943 22.1013 11.7973Z" fill="white"/>
</svg>
